<mxfile host="app.diagrams.net" agent="Mozilla/5.0 (Windows NT 10.0; Win64; x64) AppleWebKit/537.36 (KHTML, like Gecko) Chrome/130.0.0.0 Safari/537.36" version="24.8.2">
  <diagram id="s--Y35dCC9yb8435VM1j" name="Página-1">
    <mxGraphModel dx="1306" dy="585" grid="1" gridSize="10" guides="1" tooltips="1" connect="1" arrows="1" fold="1" page="1" pageScale="1" pageWidth="827" pageHeight="1169" math="0" shadow="0">
      <root>
        <mxCell id="0" />
        <mxCell id="1" parent="0" />
        <mxCell id="w3QaDJ-DcB-Zijk85-2J-1" value="Usuário" style="swimlane;childLayout=stackLayout;horizontal=1;startSize=50;horizontalStack=0;rounded=1;fontSize=14;fontStyle=0;strokeWidth=2;resizeParent=0;resizeLast=1;shadow=0;dashed=0;align=center;arcSize=4;whiteSpace=wrap;html=1;" vertex="1" parent="1">
          <mxGeometry x="120" y="110" width="160" height="140" as="geometry" />
        </mxCell>
        <mxCell id="w3QaDJ-DcB-Zijk85-2J-8" value="- id: int&amp;nbsp;&lt;div&gt;&amp;nbsp;- nome: string&amp;nbsp;&lt;/div&gt;&lt;div&gt;&amp;nbsp;- email: string&amp;nbsp;&lt;/div&gt;&lt;div&gt;&amp;nbsp;- senha: string&amp;nbsp;&lt;/div&gt;&lt;div&gt;&amp;nbsp;- autenticado: bool&lt;/div&gt;" style="text;html=1;align=left;verticalAlign=middle;resizable=0;points=[];autosize=1;strokeColor=none;fillColor=none;" vertex="1" parent="w3QaDJ-DcB-Zijk85-2J-1">
          <mxGeometry y="50" width="160" height="90" as="geometry" />
        </mxCell>
        <mxCell id="w3QaDJ-DcB-Zijk85-2J-19" style="edgeStyle=orthogonalEdgeStyle;rounded=0;orthogonalLoop=1;jettySize=auto;html=1;" edge="1" parent="1" source="w3QaDJ-DcB-Zijk85-2J-9">
          <mxGeometry relative="1" as="geometry">
            <mxPoint x="290" y="185" as="targetPoint" />
          </mxGeometry>
        </mxCell>
        <mxCell id="w3QaDJ-DcB-Zijk85-2J-9" value="Convite" style="swimlane;childLayout=stackLayout;horizontal=1;startSize=50;horizontalStack=0;rounded=1;fontSize=14;fontStyle=0;strokeWidth=2;resizeParent=0;resizeLast=1;shadow=0;dashed=0;align=center;arcSize=4;whiteSpace=wrap;html=1;" vertex="1" parent="1">
          <mxGeometry x="460" y="100" width="180" height="170" as="geometry" />
        </mxCell>
        <mxCell id="w3QaDJ-DcB-Zijk85-2J-10" value="-id: int&amp;nbsp;&lt;div&gt;- link: string&lt;/div&gt;&lt;div&gt;- dataCriacao: datetime&lt;/div&gt;&lt;div&gt;- validade: datetime&amp;nbsp;&lt;/div&gt;&lt;div&gt;- estado: string (enviado/aceito)&amp;nbsp;&lt;/div&gt;&lt;div&gt;- limiteConvites: int&lt;/div&gt;" style="align=left;strokeColor=none;fillColor=none;spacingLeft=4;fontSize=12;verticalAlign=top;resizable=0;rotatable=0;part=1;html=1;" vertex="1" parent="w3QaDJ-DcB-Zijk85-2J-9">
          <mxGeometry y="50" width="180" height="120" as="geometry" />
        </mxCell>
        <mxCell id="w3QaDJ-DcB-Zijk85-2J-12" value="Cadastro" style="swimlane;childLayout=stackLayout;horizontal=1;startSize=50;horizontalStack=0;rounded=1;fontSize=14;fontStyle=0;strokeWidth=2;resizeParent=0;resizeLast=1;shadow=0;dashed=0;align=center;arcSize=4;whiteSpace=wrap;html=1;" vertex="1" parent="1">
          <mxGeometry x="120" y="300" width="160" height="120" as="geometry" />
        </mxCell>
        <mxCell id="w3QaDJ-DcB-Zijk85-2J-13" value="- id: int&amp;nbsp;&lt;div&gt;- usuarioId: int&amp;nbsp;&lt;/div&gt;&lt;div&gt;&lt;span style=&quot;background-color: initial;&quot;&gt;- conviteId: int&lt;/span&gt;&lt;/div&gt;&lt;div&gt;&lt;span style=&quot;background-color: initial;&quot;&gt;- dataCadastro: datetime&amp;nbsp; &amp;nbsp;&lt;/span&gt;&lt;/div&gt;" style="align=left;strokeColor=none;fillColor=none;spacingLeft=4;fontSize=12;verticalAlign=top;resizable=0;rotatable=0;part=1;html=1;" vertex="1" parent="w3QaDJ-DcB-Zijk85-2J-12">
          <mxGeometry y="50" width="160" height="70" as="geometry" />
        </mxCell>
        <mxCell id="w3QaDJ-DcB-Zijk85-2J-38" style="edgeStyle=orthogonalEdgeStyle;rounded=0;orthogonalLoop=1;jettySize=auto;html=1;exitX=0.25;exitY=0;exitDx=0;exitDy=0;entryX=0;entryY=0.5;entryDx=0;entryDy=0;" edge="1" parent="1" source="w3QaDJ-DcB-Zijk85-2J-14" target="w3QaDJ-DcB-Zijk85-2J-1">
          <mxGeometry relative="1" as="geometry" />
        </mxCell>
        <mxCell id="w3QaDJ-DcB-Zijk85-2J-42" style="edgeStyle=orthogonalEdgeStyle;rounded=0;orthogonalLoop=1;jettySize=auto;html=1;" edge="1" parent="1" source="w3QaDJ-DcB-Zijk85-2J-14">
          <mxGeometry relative="1" as="geometry">
            <mxPoint x="165" y="430" as="targetPoint" />
          </mxGeometry>
        </mxCell>
        <mxCell id="w3QaDJ-DcB-Zijk85-2J-14" value="Sistema" style="swimlane;childLayout=stackLayout;horizontal=1;startSize=50;horizontalStack=0;rounded=1;fontSize=14;fontStyle=0;strokeWidth=2;resizeParent=0;resizeLast=1;shadow=0;dashed=0;align=center;arcSize=4;whiteSpace=wrap;html=1;" vertex="1" parent="1">
          <mxGeometry x="10" y="490" width="310" height="120" as="geometry" />
        </mxCell>
        <mxCell id="w3QaDJ-DcB-Zijk85-2J-15" value="+ criarUsuario(nome, email, senha): Usuario&lt;div&gt;&amp;nbsp;+ autenticarUsuario(email, senha): bool&lt;/div&gt;&lt;div&gt;&amp;nbsp;+ associarConvite(convidado: Usuario, convite: Convite)&lt;/div&gt;" style="align=left;strokeColor=none;fillColor=none;spacingLeft=4;fontSize=12;verticalAlign=top;resizable=0;rotatable=0;part=1;html=1;" vertex="1" parent="w3QaDJ-DcB-Zijk85-2J-14">
          <mxGeometry y="50" width="310" height="70" as="geometry" />
        </mxCell>
        <mxCell id="w3QaDJ-DcB-Zijk85-2J-18" style="edgeStyle=orthogonalEdgeStyle;rounded=0;orthogonalLoop=1;jettySize=auto;html=1;" edge="1" parent="1" source="w3QaDJ-DcB-Zijk85-2J-8">
          <mxGeometry relative="1" as="geometry">
            <mxPoint x="450" y="205" as="targetPoint" />
          </mxGeometry>
        </mxCell>
        <mxCell id="w3QaDJ-DcB-Zijk85-2J-34" style="edgeStyle=orthogonalEdgeStyle;rounded=0;orthogonalLoop=1;jettySize=auto;html=1;entryX=0.5;entryY=0;entryDx=0;entryDy=0;" edge="1" parent="1" source="w3QaDJ-DcB-Zijk85-2J-8" target="w3QaDJ-DcB-Zijk85-2J-12">
          <mxGeometry relative="1" as="geometry" />
        </mxCell>
        <mxCell id="w3QaDJ-DcB-Zijk85-2J-20" value="1" style="text;html=1;align=center;verticalAlign=middle;resizable=0;points=[];autosize=1;strokeColor=none;fillColor=none;" vertex="1" parent="1">
          <mxGeometry x="290" y="208" width="30" height="30" as="geometry" />
        </mxCell>
        <mxCell id="w3QaDJ-DcB-Zijk85-2J-21" value="*" style="text;html=1;align=center;verticalAlign=middle;resizable=0;points=[];autosize=1;strokeColor=none;fillColor=none;" vertex="1" parent="1">
          <mxGeometry x="415" y="208" width="30" height="30" as="geometry" />
        </mxCell>
        <mxCell id="w3QaDJ-DcB-Zijk85-2J-22" value="1" style="text;html=1;align=center;verticalAlign=middle;resizable=0;points=[];autosize=1;strokeColor=none;fillColor=none;" vertex="1" parent="1">
          <mxGeometry x="425" y="148" width="30" height="30" as="geometry" />
        </mxCell>
        <mxCell id="w3QaDJ-DcB-Zijk85-2J-23" value="*" style="text;html=1;align=center;verticalAlign=middle;resizable=0;points=[];autosize=1;strokeColor=none;fillColor=none;" vertex="1" parent="1">
          <mxGeometry x="275" y="148" width="30" height="30" as="geometry" />
        </mxCell>
        <mxCell id="w3QaDJ-DcB-Zijk85-2J-31" style="edgeStyle=orthogonalEdgeStyle;rounded=0;orthogonalLoop=1;jettySize=auto;html=1;entryX=1;entryY=0.5;entryDx=0;entryDy=0;" edge="1" parent="1" target="w3QaDJ-DcB-Zijk85-2J-13">
          <mxGeometry relative="1" as="geometry">
            <mxPoint x="495" y="270" as="sourcePoint" />
            <mxPoint x="305" y="387.5" as="targetPoint" />
            <Array as="points">
              <mxPoint x="306" y="270" />
              <mxPoint x="306" y="385" />
            </Array>
          </mxGeometry>
        </mxCell>
        <mxCell id="w3QaDJ-DcB-Zijk85-2J-32" value="1" style="text;html=1;align=center;verticalAlign=middle;resizable=0;points=[];autosize=1;strokeColor=none;fillColor=none;" vertex="1" parent="1">
          <mxGeometry x="455" y="270" width="30" height="30" as="geometry" />
        </mxCell>
        <mxCell id="w3QaDJ-DcB-Zijk85-2J-33" value="1" style="text;html=1;align=center;verticalAlign=middle;resizable=0;points=[];autosize=1;strokeColor=none;fillColor=none;" vertex="1" parent="1">
          <mxGeometry x="305" y="368" width="30" height="30" as="geometry" />
        </mxCell>
        <mxCell id="w3QaDJ-DcB-Zijk85-2J-35" value="1" style="text;html=1;align=center;verticalAlign=middle;resizable=0;points=[];autosize=1;strokeColor=none;fillColor=none;" vertex="1" parent="1">
          <mxGeometry x="195" y="248" width="30" height="30" as="geometry" />
        </mxCell>
        <mxCell id="w3QaDJ-DcB-Zijk85-2J-37" value="1" style="text;html=1;align=center;verticalAlign=middle;resizable=0;points=[];autosize=1;strokeColor=none;fillColor=none;" vertex="1" parent="1">
          <mxGeometry x="195" y="278" width="30" height="30" as="geometry" />
        </mxCell>
        <mxCell id="w3QaDJ-DcB-Zijk85-2J-39" value="1" style="text;html=1;align=center;verticalAlign=middle;resizable=0;points=[];autosize=1;strokeColor=none;fillColor=none;" vertex="1" parent="1">
          <mxGeometry x="55" y="408" width="30" height="30" as="geometry" />
        </mxCell>
        <mxCell id="w3QaDJ-DcB-Zijk85-2J-40" value="*" style="text;html=1;align=center;verticalAlign=middle;resizable=0;points=[];autosize=1;strokeColor=none;fillColor=none;" vertex="1" parent="1">
          <mxGeometry x="85" y="148" width="30" height="30" as="geometry" />
        </mxCell>
        <mxCell id="w3QaDJ-DcB-Zijk85-2J-41" value="1" style="text;html=1;align=center;verticalAlign=middle;resizable=0;points=[];autosize=1;strokeColor=none;fillColor=none;" vertex="1" parent="1">
          <mxGeometry x="180" y="470" width="30" height="30" as="geometry" />
        </mxCell>
        <mxCell id="w3QaDJ-DcB-Zijk85-2J-43" value="*" style="text;html=1;align=center;verticalAlign=middle;resizable=0;points=[];autosize=1;strokeColor=none;fillColor=none;" vertex="1" parent="1">
          <mxGeometry x="180" y="420" width="30" height="30" as="geometry" />
        </mxCell>
        <mxCell id="w3QaDJ-DcB-Zijk85-2J-44" style="edgeStyle=orthogonalEdgeStyle;rounded=0;orthogonalLoop=1;jettySize=auto;html=1;exitX=1;exitY=0.25;exitDx=0;exitDy=0;" edge="1" parent="1" source="w3QaDJ-DcB-Zijk85-2J-15">
          <mxGeometry relative="1" as="geometry">
            <mxPoint x="550" y="280" as="targetPoint" />
          </mxGeometry>
        </mxCell>
        <mxCell id="w3QaDJ-DcB-Zijk85-2J-45" value="1" style="text;html=1;align=center;verticalAlign=middle;resizable=0;points=[];autosize=1;strokeColor=none;fillColor=none;" vertex="1" parent="1">
          <mxGeometry x="325" y="558" width="30" height="30" as="geometry" />
        </mxCell>
        <mxCell id="w3QaDJ-DcB-Zijk85-2J-46" value="*" style="text;html=1;align=center;verticalAlign=middle;resizable=0;points=[];autosize=1;strokeColor=none;fillColor=none;" vertex="1" parent="1">
          <mxGeometry x="545" y="278" width="30" height="30" as="geometry" />
        </mxCell>
        <mxCell id="w3QaDJ-DcB-Zijk85-2J-47" value="&lt;font style=&quot;font-size: 18px;&quot;&gt;DIAGRAMA DE CLASSES- MEMBER GET MEMBER&lt;/font&gt;" style="text;html=1;align=center;verticalAlign=middle;resizable=0;points=[];autosize=1;strokeColor=none;fillColor=none;" vertex="1" parent="1">
          <mxGeometry x="189" y="33" width="450" height="40" as="geometry" />
        </mxCell>
      </root>
    </mxGraphModel>
  </diagram>
</mxfile>
